<?xml version="1.0" standalone="no"?><!DOCTYPE svg PUBLIC "-//W3C//DTD SVG 1.1//EN" "http://www.w3.org/Graphics/SVG/1.1/DTD/svg11.dtd"><svg t="1660789638193" class="icon" viewBox="0 0 1024 1024" version="1.1" xmlns="http://www.w3.org/2000/svg" p-id="1210" width="32" height="32" xmlns:xlink="http://www.w3.org/1999/xlink"><defs><style type="text/css">@font-face { font-family: feedback-iconfont; src: url("//at.alicdn.com/t/font_1031158_u69w8yhxdu.woff2?t=1630033759944") format("woff2"), url("//at.alicdn.com/t/font_1031158_u69w8yhxdu.woff?t=1630033759944") format("woff"), url("//at.alicdn.com/t/font_1031158_u69w8yhxdu.ttf?t=1630033759944") format("truetype"); }
</style></defs><path d="M812.49 862.49c-12.8 0-25.59-4.88-35.36-14.64l-604-604c-19.53-19.53-19.53-51.18 0-70.71 19.53-19.53 51.18-19.53 70.71 0l604 604c19.53 19.53 19.53 51.18 0 70.71-9.76 9.76-22.56 14.64-35.35 14.64z" p-id="1211" fill="#006400"></path><path d="M208.49 862.49c-12.8 0-25.59-4.88-35.36-14.64-19.53-19.53-19.53-51.18 0-70.71l604-604c19.53-19.53 51.18-19.53 70.71 0 19.53 19.53 19.53 51.18 0 70.71l-604 604c-9.76 9.76-22.56 14.64-35.35 14.64z" p-id="1212" fill="#006400"></path></svg>