<?xml version="1.0" standalone="no"?><!DOCTYPE svg PUBLIC "-//W3C//DTD SVG 1.1//EN" "http://www.w3.org/Graphics/SVG/1.1/DTD/svg11.dtd"><svg t="1660097549951" class="icon" viewBox="0 0 1024 1024" version="1.1" xmlns="http://www.w3.org/2000/svg" p-id="7171" xmlns:xlink="http://www.w3.org/1999/xlink" width="200" height="200"><defs><style type="text/css">@font-face { font-family: feedback-iconfont; src: url("//at.alicdn.com/t/font_1031158_u69w8yhxdu.woff2?t=1630033759944") format("woff2"), url("//at.alicdn.com/t/font_1031158_u69w8yhxdu.woff?t=1630033759944") format("woff"), url("//at.alicdn.com/t/font_1031158_u69w8yhxdu.ttf?t=1630033759944") format("truetype"); }
</style></defs><path d="M627.501176 411.105882C804.141176 470.889412 933.647059 657.618824 933.647059 805.647059c0 74.541176-73.185882 128-158.569412 163.84a671.924706 671.924706 0 0 1-526.155294 0C163.538824 933.044706 90.352941 880.941176 90.352941 805.647059c0-150.889412 134.324706-341.835294 316.235294-398.004706l88.847059 39.454118c10.842353 3.011765 22.287059 3.011765 33.129412 0l98.93647-35.990589z m-132.065882-39.303529l-143.510588-62.945882a195.764706 195.764706 0 1 1 307.802353 15.058823l-131.162353 47.887059c-10.842353 3.011765-22.287059 3.011765-33.129412 0z" fill="#00A99D" p-id="7172"></path></svg>